<mxfile host="app.diagrams.net" agent="Mozilla/5.0 (Windows NT 10.0; Win64; x64; rv:131.0) Gecko/20100101 Firefox/131.0" version="24.8.2">
  <diagram name="Page-1" id="eJ1suCUGfrgjvpVPt0L2">
    <mxGraphModel dx="1434" dy="821" grid="0" gridSize="10" guides="1" tooltips="1" connect="1" arrows="1" fold="1" page="1" pageScale="1" pageWidth="2336" pageHeight="1654" background="#000000" math="0" shadow="0">
      <root>
        <mxCell id="0" />
        <mxCell id="1" parent="0" />
        <mxCell id="AQzfYVfxDlzEViwBDPFZ-25" value="" style="rounded=0;whiteSpace=wrap;html=1;fillColor=none;strokeColor=#FFFFF5;" vertex="1" parent="1">
          <mxGeometry x="401" y="471" width="639" height="280" as="geometry" />
        </mxCell>
        <mxCell id="AQzfYVfxDlzEViwBDPFZ-4" style="edgeStyle=orthogonalEdgeStyle;rounded=0;orthogonalLoop=1;jettySize=auto;html=1;entryX=0.5;entryY=0;entryDx=0;entryDy=0;startArrow=ERmany;startFill=0;endArrow=none;endFill=0;strokeColor=#FFFFF5;" edge="1" parent="1" source="AQzfYVfxDlzEViwBDPFZ-1" target="AQzfYVfxDlzEViwBDPFZ-3">
          <mxGeometry relative="1" as="geometry" />
        </mxCell>
        <mxCell id="AQzfYVfxDlzEViwBDPFZ-5" style="edgeStyle=orthogonalEdgeStyle;rounded=0;orthogonalLoop=1;jettySize=auto;html=1;entryX=0;entryY=0.5;entryDx=0;entryDy=0;endArrow=ERmany;endFill=0;startArrow=ERmany;startFill=0;strokeColor=#FFFFF5;" edge="1" parent="1" source="AQzfYVfxDlzEViwBDPFZ-1" target="AQzfYVfxDlzEViwBDPFZ-2">
          <mxGeometry relative="1" as="geometry" />
        </mxCell>
        <mxCell id="AQzfYVfxDlzEViwBDPFZ-1" value="Trail" style="rounded=1;whiteSpace=wrap;html=1;strokeColor=#FFFFF5;fillColor=#000000;fontColor=#FFFFF5;" vertex="1" parent="1">
          <mxGeometry x="480" y="243" width="120" height="60" as="geometry" />
        </mxCell>
        <mxCell id="AQzfYVfxDlzEViwBDPFZ-2" value="&lt;div&gt;Feature&lt;/div&gt;" style="rounded=1;whiteSpace=wrap;html=1;strokeColor=#FFFFF5;fillColor=#000000;fontColor=#FFFFF5;" vertex="1" parent="1">
          <mxGeometry x="765" y="243" width="120" height="60" as="geometry" />
        </mxCell>
        <mxCell id="AQzfYVfxDlzEViwBDPFZ-3" value="Location" style="rounded=1;whiteSpace=wrap;html=1;strokeColor=#FFFFF5;fillColor=#000000;fontColor=#FFFFF5;" vertex="1" parent="1">
          <mxGeometry x="480" y="383" width="120" height="60" as="geometry" />
        </mxCell>
        <mxCell id="AQzfYVfxDlzEViwBDPFZ-8" value="&lt;font color=&quot;#fffff5&quot;&gt;A trail has many features.&lt;/font&gt;" style="text;html=1;align=center;verticalAlign=middle;resizable=0;points=[];autosize=1;strokeColor=none;fillColor=none;" vertex="1" parent="1">
          <mxGeometry x="606" y="239" width="156" height="26" as="geometry" />
        </mxCell>
        <mxCell id="AQzfYVfxDlzEViwBDPFZ-9" value="&lt;font color=&quot;#fffff5&quot;&gt;A feature is on many trails.&lt;br&gt;&lt;/font&gt;" style="text;html=1;align=center;verticalAlign=middle;resizable=0;points=[];autosize=1;strokeColor=none;fillColor=none;" vertex="1" parent="1">
          <mxGeometry x="603" y="281" width="162" height="26" as="geometry" />
        </mxCell>
        <mxCell id="AQzfYVfxDlzEViwBDPFZ-10" value="&lt;font color=&quot;#fffff5&quot;&gt;A trail is registered&lt;br&gt;to one &lt;/font&gt;&lt;font color=&quot;#fffff5&quot;&gt;location.&lt;/font&gt;" style="text;html=1;align=right;verticalAlign=middle;resizable=0;points=[];autosize=1;strokeColor=none;fillColor=none;" vertex="1" parent="1">
          <mxGeometry x="405" y="324" width="120" height="41" as="geometry" />
        </mxCell>
        <mxCell id="AQzfYVfxDlzEViwBDPFZ-11" value="&lt;font color=&quot;#fffff5&quot;&gt;A location may have&lt;br&gt;&lt;/font&gt;&lt;div align=&quot;left&quot;&gt;&lt;font color=&quot;#fffff5&quot;&gt;many trails.&lt;/font&gt;&lt;br&gt;&lt;/div&gt;" style="text;html=1;align=center;verticalAlign=middle;resizable=0;points=[];autosize=1;strokeColor=none;fillColor=none;" vertex="1" parent="1">
          <mxGeometry x="546" y="324" width="126" height="41" as="geometry" />
        </mxCell>
        <mxCell id="AQzfYVfxDlzEViwBDPFZ-12" value="" style="rounded=0;whiteSpace=wrap;html=1;fillColor=none;strokeColor=#FFFFF5;" vertex="1" parent="1">
          <mxGeometry x="401" y="200" width="507" height="259" as="geometry" />
        </mxCell>
        <mxCell id="AQzfYVfxDlzEViwBDPFZ-13" value="&lt;b&gt;Draft ERD&lt;/b&gt;" style="rounded=0;whiteSpace=wrap;html=1;fillColor=#dae8fc;strokeColor=#6c8ebf;" vertex="1" parent="1">
          <mxGeometry x="401" y="200" width="507" height="24" as="geometry" />
        </mxCell>
        <mxCell id="AQzfYVfxDlzEViwBDPFZ-14" value="&lt;b&gt;Entities&lt;/b&gt;" style="rounded=0;whiteSpace=wrap;html=1;fillColor=#dae8fc;strokeColor=#6c8ebf;" vertex="1" parent="1">
          <mxGeometry x="401" y="134" width="507" height="24" as="geometry" />
        </mxCell>
        <mxCell id="AQzfYVfxDlzEViwBDPFZ-15" value="&lt;font color=&quot;#fffff5&quot;&gt;Trail, Feature, Location&lt;/font&gt;" style="rounded=0;whiteSpace=wrap;html=1;fillColor=none;strokeColor=#FFFFF5;" vertex="1" parent="1">
          <mxGeometry x="401" y="158" width="507" height="27" as="geometry" />
        </mxCell>
        <mxCell id="AQzfYVfxDlzEViwBDPFZ-16" style="edgeStyle=orthogonalEdgeStyle;rounded=0;orthogonalLoop=1;jettySize=auto;html=1;entryX=0.5;entryY=0;entryDx=0;entryDy=0;startArrow=ERmany;startFill=0;endArrow=none;endFill=0;strokeColor=#FFFFF5;" edge="1" parent="1" source="AQzfYVfxDlzEViwBDPFZ-18" target="AQzfYVfxDlzEViwBDPFZ-20">
          <mxGeometry relative="1" as="geometry" />
        </mxCell>
        <mxCell id="AQzfYVfxDlzEViwBDPFZ-28" style="edgeStyle=orthogonalEdgeStyle;rounded=0;orthogonalLoop=1;jettySize=auto;html=1;entryX=0;entryY=0.5;entryDx=0;entryDy=0;strokeColor=#FFFFF5;endArrow=ERmany;endFill=0;" edge="1" parent="1" source="AQzfYVfxDlzEViwBDPFZ-18" target="AQzfYVfxDlzEViwBDPFZ-27">
          <mxGeometry relative="1" as="geometry" />
        </mxCell>
        <mxCell id="AQzfYVfxDlzEViwBDPFZ-18" value="Trail" style="rounded=1;whiteSpace=wrap;html=1;strokeColor=#FFFFF5;fillColor=#000000;fontColor=#FFFFF5;" vertex="1" parent="1">
          <mxGeometry x="480" y="537" width="120" height="60" as="geometry" />
        </mxCell>
        <mxCell id="AQzfYVfxDlzEViwBDPFZ-29" style="edgeStyle=orthogonalEdgeStyle;rounded=0;orthogonalLoop=1;jettySize=auto;html=1;entryX=1;entryY=0.5;entryDx=0;entryDy=0;strokeColor=#FFFFF5;endArrow=ERmany;endFill=0;" edge="1" parent="1" source="AQzfYVfxDlzEViwBDPFZ-19" target="AQzfYVfxDlzEViwBDPFZ-27">
          <mxGeometry relative="1" as="geometry" />
        </mxCell>
        <mxCell id="AQzfYVfxDlzEViwBDPFZ-19" value="&lt;div&gt;Feature&lt;/div&gt;" style="rounded=1;whiteSpace=wrap;html=1;strokeColor=#FFFFF5;fillColor=#000000;fontColor=#FFFFF5;" vertex="1" parent="1">
          <mxGeometry x="892" y="537" width="120" height="60" as="geometry" />
        </mxCell>
        <mxCell id="AQzfYVfxDlzEViwBDPFZ-20" value="Location" style="rounded=1;whiteSpace=wrap;html=1;strokeColor=#FFFFF5;fillColor=#000000;fontColor=#FFFFF5;" vertex="1" parent="1">
          <mxGeometry x="480" y="677" width="120" height="60" as="geometry" />
        </mxCell>
        <mxCell id="AQzfYVfxDlzEViwBDPFZ-21" value="&lt;font color=&quot;#fffff5&quot;&gt;Trail has multiple&lt;br&gt;&lt;/font&gt;&lt;div align=&quot;left&quot;&gt;&lt;font color=&quot;#fffff5&quot;&gt;trail-features.&lt;/font&gt;&lt;br&gt;&lt;/div&gt;" style="text;html=1;align=center;verticalAlign=middle;resizable=0;points=[];autosize=1;strokeColor=none;fillColor=none;" vertex="1" parent="1">
          <mxGeometry x="593" y="509" width="113" height="41" as="geometry" />
        </mxCell>
        <mxCell id="AQzfYVfxDlzEViwBDPFZ-22" value="&lt;font color=&quot;#fffff5&quot;&gt;Feature is part of&lt;br&gt;many trail-features.&lt;/font&gt;" style="text;html=1;align=center;verticalAlign=middle;resizable=0;points=[];autosize=1;strokeColor=none;fillColor=none;" vertex="1" parent="1">
          <mxGeometry x="790" y="498" width="123" height="41" as="geometry" />
        </mxCell>
        <mxCell id="AQzfYVfxDlzEViwBDPFZ-23" value="&lt;font color=&quot;#fffff5&quot;&gt;A trail is registered&lt;br&gt;to one &lt;/font&gt;&lt;font color=&quot;#fffff5&quot;&gt;location.&lt;/font&gt;" style="text;html=1;align=right;verticalAlign=middle;resizable=0;points=[];autosize=1;strokeColor=none;fillColor=none;" vertex="1" parent="1">
          <mxGeometry x="405" y="623" width="120" height="41" as="geometry" />
        </mxCell>
        <mxCell id="AQzfYVfxDlzEViwBDPFZ-24" value="&lt;font color=&quot;#fffff5&quot;&gt;A location may have&lt;br&gt;&lt;/font&gt;&lt;div align=&quot;left&quot;&gt;&lt;font color=&quot;#fffff5&quot;&gt;many trails.&lt;/font&gt;&lt;br&gt;&lt;/div&gt;" style="text;html=1;align=center;verticalAlign=middle;resizable=0;points=[];autosize=1;strokeColor=none;fillColor=none;" vertex="1" parent="1">
          <mxGeometry x="546" y="624" width="126" height="41" as="geometry" />
        </mxCell>
        <mxCell id="AQzfYVfxDlzEViwBDPFZ-26" value="&lt;b&gt;Resolved &#39;one-to-one&#39; and &#39;many-to-many&#39; relationships&lt;br&gt;&lt;/b&gt;" style="rounded=0;whiteSpace=wrap;html=1;fillColor=#dae8fc;strokeColor=#6c8ebf;" vertex="1" parent="1">
          <mxGeometry x="401" y="471" width="639" height="23" as="geometry" />
        </mxCell>
        <mxCell id="AQzfYVfxDlzEViwBDPFZ-27" value="Trail-Feature" style="rounded=1;whiteSpace=wrap;html=1;strokeColor=#FFFFF5;fillColor=#000000;fontColor=#FFFFF5;" vertex="1" parent="1">
          <mxGeometry x="686" y="537" width="120" height="60" as="geometry" />
        </mxCell>
        <mxCell id="AQzfYVfxDlzEViwBDPFZ-30" value="&lt;div align=&quot;left&quot;&gt;&lt;font color=&quot;#fffff5&quot;&gt;Trail-feature&lt;/font&gt;&lt;br&gt;&lt;/div&gt;&lt;div align=&quot;left&quot;&gt;&lt;font color=&quot;#fffff5&quot;&gt;belongs to one trail.&lt;/font&gt;&lt;br&gt;&lt;/div&gt;" style="text;html=1;align=left;verticalAlign=middle;resizable=0;points=[];autosize=1;strokeColor=none;fillColor=none;" vertex="1" parent="1">
          <mxGeometry x="603" y="580" width="126" height="41" as="geometry" />
        </mxCell>
        <mxCell id="AQzfYVfxDlzEViwBDPFZ-31" value="&lt;font color=&quot;#fffff5&quot;&gt;Trail-feature represents&lt;br&gt;only one feature.&lt;/font&gt;" style="text;html=1;align=center;verticalAlign=middle;resizable=0;points=[];autosize=1;strokeColor=none;fillColor=none;" vertex="1" parent="1">
          <mxGeometry x="778" y="597" width="147" height="41" as="geometry" />
        </mxCell>
        <mxCell id="AQzfYVfxDlzEViwBDPFZ-32" value="" style="rounded=0;whiteSpace=wrap;html=1;fillColor=none;strokeColor=#FFFFF5;" vertex="1" parent="1">
          <mxGeometry x="401" y="762" width="639" height="280" as="geometry" />
        </mxCell>
        <mxCell id="AQzfYVfxDlzEViwBDPFZ-33" style="edgeStyle=orthogonalEdgeStyle;rounded=0;orthogonalLoop=1;jettySize=auto;html=1;startArrow=ERmany;startFill=0;endArrow=none;endFill=0;strokeColor=#FFFFF5;" edge="1" parent="1" source="AQzfYVfxDlzEViwBDPFZ-35">
          <mxGeometry relative="1" as="geometry">
            <mxPoint x="540" y="929" as="targetPoint" />
          </mxGeometry>
        </mxCell>
        <mxCell id="AQzfYVfxDlzEViwBDPFZ-53" style="edgeStyle=orthogonalEdgeStyle;rounded=0;orthogonalLoop=1;jettySize=auto;html=1;entryX=0;entryY=0.5;entryDx=0;entryDy=0;endArrow=ERmany;endFill=0;strokeColor=#FFFFF5;" edge="1" parent="1" target="AQzfYVfxDlzEViwBDPFZ-44">
          <mxGeometry relative="1" as="geometry">
            <mxPoint x="645" y="858" as="sourcePoint" />
          </mxGeometry>
        </mxCell>
        <mxCell id="AQzfYVfxDlzEViwBDPFZ-35" value="Trail" style="rounded=1;whiteSpace=wrap;html=1;strokeColor=#FFFFF5;fillColor=#000000;fontColor=#FFFFF5;" vertex="1" parent="1">
          <mxGeometry x="480" y="828" width="120" height="60" as="geometry" />
        </mxCell>
        <mxCell id="AQzfYVfxDlzEViwBDPFZ-36" style="edgeStyle=orthogonalEdgeStyle;rounded=0;orthogonalLoop=1;jettySize=auto;html=1;entryX=1;entryY=0.5;entryDx=0;entryDy=0;strokeColor=#FFFFF5;endArrow=ERmany;endFill=0;" edge="1" parent="1" target="AQzfYVfxDlzEViwBDPFZ-44">
          <mxGeometry relative="1" as="geometry">
            <mxPoint x="851" y="858" as="sourcePoint" />
          </mxGeometry>
        </mxCell>
        <mxCell id="AQzfYVfxDlzEViwBDPFZ-37" value="&lt;div&gt;Feature&lt;/div&gt;" style="rounded=1;whiteSpace=wrap;html=1;strokeColor=#FFFFF5;fillColor=#000000;fontColor=#FFFFF5;" vertex="1" parent="1">
          <mxGeometry x="892" y="828" width="120" height="60" as="geometry" />
        </mxCell>
        <mxCell id="AQzfYVfxDlzEViwBDPFZ-38" value="Location" style="rounded=1;whiteSpace=wrap;html=1;strokeColor=#FFFFF5;fillColor=#000000;fontColor=#FFFFF5;" vertex="1" parent="1">
          <mxGeometry x="480" y="968" width="120" height="60" as="geometry" />
        </mxCell>
        <mxCell id="AQzfYVfxDlzEViwBDPFZ-39" value="&lt;font color=&quot;#fffff5&quot;&gt;Trail &lt;b&gt;may &lt;/b&gt;have &lt;b&gt;multiple&lt;br&gt;&lt;/b&gt;&lt;/font&gt;&lt;div&gt;&lt;font color=&quot;#fffff5&quot;&gt;trail-features.&lt;/font&gt;&lt;br&gt;&lt;/div&gt;" style="text;html=1;align=center;verticalAlign=middle;resizable=0;points=[];autosize=1;strokeColor=none;fillColor=none;" vertex="1" parent="1">
          <mxGeometry x="577" y="800" width="146" height="41" as="geometry" />
        </mxCell>
        <mxCell id="AQzfYVfxDlzEViwBDPFZ-40" value="&lt;font color=&quot;#fffff5&quot;&gt;Feature &lt;b&gt;may &lt;/b&gt;be part of&lt;br&gt;&lt;b&gt;many &lt;/b&gt;trail-features.&lt;/font&gt;" style="text;html=1;align=center;verticalAlign=middle;resizable=0;points=[];autosize=1;strokeColor=none;fillColor=none;" vertex="1" parent="1">
          <mxGeometry x="781" y="789" width="141" height="41" as="geometry" />
        </mxCell>
        <mxCell id="AQzfYVfxDlzEViwBDPFZ-41" value="&lt;font color=&quot;#fffff5&quot;&gt;A trail &lt;b&gt;must &lt;/b&gt;be&lt;br&gt;registered to&lt;br&gt;&lt;b&gt;one &lt;/b&gt;&lt;/font&gt;&lt;font color=&quot;#fffff5&quot;&gt;location.&lt;/font&gt;" style="text;html=1;align=right;verticalAlign=middle;resizable=0;points=[];autosize=1;strokeColor=none;fillColor=none;" vertex="1" parent="1">
          <mxGeometry x="428" y="907" width="97" height="55" as="geometry" />
        </mxCell>
        <mxCell id="AQzfYVfxDlzEViwBDPFZ-42" value="&lt;font color=&quot;#fffff5&quot;&gt;A location &lt;b&gt;may &lt;/b&gt;have&lt;br&gt;&lt;/font&gt;&lt;div align=&quot;left&quot;&gt;&lt;font color=&quot;#fffff5&quot;&gt;&lt;b&gt;many &lt;/b&gt;trails.&lt;/font&gt;&lt;br&gt;&lt;/div&gt;" style="text;html=1;align=center;verticalAlign=middle;resizable=0;points=[];autosize=1;strokeColor=none;fillColor=none;" vertex="1" parent="1">
          <mxGeometry x="546" y="915" width="127" height="41" as="geometry" />
        </mxCell>
        <mxCell id="AQzfYVfxDlzEViwBDPFZ-43" value="&lt;b&gt;Optionality of relationships&lt;br&gt;&lt;/b&gt;" style="rounded=0;whiteSpace=wrap;html=1;fillColor=#dae8fc;strokeColor=#6c8ebf;" vertex="1" parent="1">
          <mxGeometry x="401" y="762" width="639" height="23" as="geometry" />
        </mxCell>
        <mxCell id="AQzfYVfxDlzEViwBDPFZ-44" value="Trail-Feature" style="rounded=1;whiteSpace=wrap;html=1;strokeColor=#FFFFF5;fillColor=#000000;fontColor=#FFFFF5;" vertex="1" parent="1">
          <mxGeometry x="686" y="828" width="120" height="60" as="geometry" />
        </mxCell>
        <mxCell id="AQzfYVfxDlzEViwBDPFZ-45" value="&lt;div align=&quot;left&quot;&gt;&lt;font color=&quot;#fffff5&quot;&gt;Trail-feature&lt;/font&gt;&lt;br&gt;&lt;/div&gt;&lt;div align=&quot;left&quot;&gt;&lt;font color=&quot;#fffff5&quot;&gt;&lt;b&gt;must &lt;/b&gt;belongs to &lt;b&gt;one &lt;/b&gt;trail.&lt;/font&gt;&lt;br&gt;&lt;/div&gt;" style="text;html=1;align=left;verticalAlign=middle;resizable=0;points=[];autosize=1;strokeColor=none;fillColor=none;" vertex="1" parent="1">
          <mxGeometry x="603" y="873" width="158" height="41" as="geometry" />
        </mxCell>
        <mxCell id="AQzfYVfxDlzEViwBDPFZ-46" value="&lt;font color=&quot;#fffff5&quot;&gt;Trail-feature &lt;b&gt;must &lt;/b&gt;represents&lt;br&gt;only &lt;b&gt;one &lt;/b&gt;feature.&lt;/font&gt;" style="text;html=1;align=center;verticalAlign=middle;resizable=0;points=[];autosize=1;strokeColor=none;fillColor=none;" vertex="1" parent="1">
          <mxGeometry x="762" y="888" width="179" height="41" as="geometry" />
        </mxCell>
        <mxCell id="AQzfYVfxDlzEViwBDPFZ-48" value="" style="endArrow=none;dashed=1;html=1;rounded=0;strokeColor=#FFFFF5;entryX=1;entryY=0.5;entryDx=0;entryDy=0;" edge="1" parent="1" target="AQzfYVfxDlzEViwBDPFZ-35">
          <mxGeometry width="50" height="50" relative="1" as="geometry">
            <mxPoint x="645" y="858" as="sourcePoint" />
            <mxPoint x="706" y="846" as="targetPoint" />
          </mxGeometry>
        </mxCell>
        <mxCell id="AQzfYVfxDlzEViwBDPFZ-50" value="" style="endArrow=none;dashed=1;html=1;rounded=0;strokeColor=#FFFFF5;entryX=0;entryY=0.5;entryDx=0;entryDy=0;" edge="1" parent="1" target="AQzfYVfxDlzEViwBDPFZ-37">
          <mxGeometry width="50" height="50" relative="1" as="geometry">
            <mxPoint x="849" y="858" as="sourcePoint" />
            <mxPoint x="726" y="792" as="targetPoint" />
          </mxGeometry>
        </mxCell>
        <mxCell id="AQzfYVfxDlzEViwBDPFZ-51" value="" style="endArrow=none;dashed=1;html=1;rounded=0;strokeColor=#FFFFF5;exitX=0.5;exitY=0;exitDx=0;exitDy=0;" edge="1" parent="1" source="AQzfYVfxDlzEViwBDPFZ-38">
          <mxGeometry width="50" height="50" relative="1" as="geometry">
            <mxPoint x="595" y="928" as="sourcePoint" />
            <mxPoint x="540" y="929" as="targetPoint" />
          </mxGeometry>
        </mxCell>
      </root>
    </mxGraphModel>
  </diagram>
</mxfile>
